<?xml version="1.0" encoding="utf-8"?>
<!-- Generator: Adobe Illustrator 28.1.0, SVG Export Plug-In . SVG Version: 6.00 Build 0)  -->
<svg version="1.1" id="Capa_1" xmlns="http://www.w3.org/2000/svg" xmlns:xlink="http://www.w3.org/1999/xlink" x="0px" y="0px"
	 viewBox="0 0 113.39 56.69" style="enable-background:new 0 0 113.39 56.69;" xml:space="preserve">
<style type="text/css">
	.st0{fill:#FFFFFF;}
</style>
<g>
	<path class="st0" d="M31.34,43.97v5.45h-1.66v-5.45h-2.15v-1.42h5.96v1.42H31.34z"/>
	<path class="st0" d="M40.65,45.96c0,0.54-0.09,1.04-0.27,1.49c-0.18,0.45-0.43,0.83-0.75,1.15c-0.32,0.32-0.7,0.57-1.14,0.74
		c-0.44,0.17-0.92,0.26-1.43,0.26s-0.99-0.09-1.43-0.26c-0.44-0.17-0.82-0.42-1.14-0.74c-0.32-0.32-0.57-0.7-0.75-1.15
		c-0.18-0.45-0.27-0.95-0.27-1.49c0-0.55,0.09-1.05,0.27-1.49c0.18-0.44,0.43-0.82,0.75-1.13c0.32-0.31,0.7-0.55,1.14-0.72
		c0.44-0.17,0.91-0.25,1.43-0.25s0.99,0.08,1.43,0.25c0.44,0.17,0.82,0.41,1.14,0.72c0.32,0.31,0.57,0.69,0.75,1.13
		C40.56,44.91,40.65,45.41,40.65,45.96z M38.95,45.96c0-0.3-0.05-0.58-0.14-0.83c-0.09-0.26-0.22-0.48-0.39-0.66
		c-0.16-0.18-0.36-0.33-0.6-0.44c-0.23-0.11-0.49-0.16-0.77-0.16s-0.53,0.05-0.76,0.16c-0.23,0.11-0.43,0.25-0.6,0.44
		c-0.17,0.18-0.3,0.41-0.39,0.66c-0.09,0.26-0.14,0.54-0.14,0.83c0,0.31,0.05,0.6,0.14,0.86c0.09,0.26,0.22,0.49,0.39,0.67
		c0.16,0.19,0.36,0.33,0.59,0.44c0.23,0.11,0.48,0.16,0.76,0.16s0.53-0.05,0.76-0.16c0.23-0.11,0.43-0.25,0.6-0.44
		c0.17-0.19,0.3-0.41,0.39-0.67C38.9,46.55,38.95,46.27,38.95,45.96z"/>
	<path class="st0" d="M45.1,49.42l-1.25-2.52h-0.76v2.52h-1.58v-6.87h2.56c0.32,0,0.64,0.03,0.94,0.1c0.31,0.07,0.48,0.18,0.72,0.34
		c0.24,0.16,0.44,0.38,0.58,0.64c0.15,0.27,0.22,0.7,0.22,1.09c0,0.47-0.12,0.86-0.37,1.17c-0.25,0.32-0.48,0.54-0.92,0.68
		l1.75,2.84H45.1z M45.03,44.76c0-0.16-0.03-0.4-0.1-0.5c-0.07-0.1-0.15-0.18-0.26-0.23c-0.1-0.05-0.22-0.09-0.35-0.11
		c-0.13-0.02-0.26-0.03-0.38-0.03h-0.87v1.81h0.77c0.13,0,0.27-0.01,0.41-0.03c0.14-0.02,0.27-0.06,0.38-0.12
		c0.11-0.06,0.21-0.14,0.28-0.25C45,45.18,45.03,44.94,45.03,44.76z"/>
	<path class="st0" d="M51.18,49.42l-1.25-2.52h-0.76v2.52h-1.58v-6.87h2.56c0.32,0,0.64,0.03,0.94,0.1
		c0.31,0.07,0.48,0.18,0.72,0.34c0.24,0.16,0.44,0.38,0.58,0.64c0.15,0.27,0.22,0.7,0.22,1.09c0,0.47-0.12,0.86-0.37,1.17
		c-0.25,0.32-0.48,0.54-0.92,0.68l1.75,2.84H51.18z M51.11,44.76c0-0.16-0.03-0.4-0.1-0.5c-0.07-0.1-0.15-0.18-0.26-0.23
		c-0.1-0.05-0.22-0.09-0.35-0.11c-0.13-0.02-0.26-0.03-0.38-0.03h-0.87v1.81h0.77c0.13,0,0.27-0.01,0.41-0.03
		c0.14-0.02,0.27-0.06,0.38-0.12c0.11-0.06,0.21-0.14,0.28-0.25C51.08,45.18,51.11,44.94,51.11,44.76z"/>
	<path class="st0" d="M53.7,49.42v-6.87h4.62v1.4H55.3v1.3h2.44v1.33H55.3v1.43h3.3v1.42H53.7z"/>
	<path class="st0" d="M68.8,49.42v-6.87h4.62v1.4h-3.02v1.3h2.44v1.33h-2.44v1.43h3.3v1.42H68.8z"/>
	<path class="st0" d="M63.04,49.42H61.4l-2.57-6.87h1.84l1.57,4.87h0.04l1.56-4.87h1.81L63.04,49.42z"/>
	<path class="st0" d="M66.08,49.42v-6.87h1.67v6.87H66.08z"/>
	<path class="st0" d="M78.75,47.93c-0.06,0.3-0.17,0.57-0.34,0.82c-0.16,0.25-0.39,0.45-0.69,0.62c-0.29,0.16-0.77,0.24-1.24,0.24
		c-1.12,0-1.68-0.33-2.34-0.96l0.97-0.89c1.45,1.08,2.16,0.35,2.16-0.55v-4.65h1.57v4.52C78.85,47.35,78.82,47.63,78.75,47.93z"/>
	<path class="st0" d="M84.13,49.42l-0.5-1.56h-2.49l-0.47,1.56h-1.69l2.59-6.87h1.71l2.56,6.87H84.13z M82.41,44.18l-0.82,2.46h1.61
		L82.41,44.18z"/>
	<g>
		<path class="st0" d="M39.12,39.63h-1.41l-0.29,0.71h-0.5l1.3-3.12h0.4l1.3,3.12h-0.51L39.12,39.63z M38.42,37.83
			c-0.17,0.45-0.34,0.9-0.52,1.35h1.05C38.77,38.73,38.6,38.29,38.42,37.83L38.42,37.83z"/>
	</g>
	<g>
		<path class="st0" d="M41.05,40.34H40.6v-1.32l-1.16-1.8h0.54l0.84,1.37h0.01l0.83-1.37h0.54l-1.16,1.8V40.34z"/>
	</g>
	<g>
		<path class="st0" d="M44.84,39.18c0,0.79-0.49,1.22-1.19,1.22s-1.19-0.43-1.19-1.22v-1.97h0.45v1.95c0,0.53,0.32,0.79,0.74,0.79
			c0.42,0,0.74-0.26,0.74-0.79v-1.95h0.45V39.18z"/>
	</g>
	<g>
		<path class="st0" d="M47.99,37.21v3.12h-0.4l-1.6-2.29h-0.01c0.01,0.23,0.01,0.51,0.01,0.75v1.54h-0.45v-3.12h0.4l1.6,2.29h0.01
			c0-0.23-0.01-0.51-0.01-0.75v-1.54H47.99z"/>
	</g>
	<g>
		<path class="st0" d="M51.18,37.66h-1.13v2.68H49.6v-2.68h-1.13v-0.45h2.72V37.66z"/>
	</g>
	<g>
		<path class="st0" d="M52.81,39.63H51.4l-0.29,0.71h-0.5l1.3-3.12h0.4l1.3,3.12H53.1L52.81,39.63z M52.1,37.83
			c-0.17,0.45-0.34,0.9-0.52,1.35h1.05C52.45,38.73,52.28,38.29,52.1,37.83L52.1,37.83z"/>
	</g>
	<g>
		<path class="st0" d="M56.9,40.34h-0.43l-0.09-1.63c-0.02-0.26-0.02-0.49-0.03-0.68h-0.01c-0.12,0.23-0.19,0.38-0.24,0.48
			c-0.03,0.06-0.05,0.1-0.07,0.13l-0.64,1.16h-0.04l-0.65-1.16c-0.02-0.03-0.04-0.08-0.07-0.13c-0.05-0.1-0.13-0.25-0.24-0.48h-0.01
			c-0.01,0.19-0.02,0.42-0.03,0.68l-0.09,1.63h-0.43l0.17-3.12h0.39l0.96,1.74h0.01l0.96-1.74h0.39L56.9,40.34z"/>
	</g>
	<g>
		<path class="st0" d="M57.93,40.34h-0.45v-3.12h0.45V40.34z"/>
	</g>
	<g>
		<path class="st0" d="M60.54,40.34h-2v-3.12h1.96v0.45h-1.51v0.87h1.18v0.45h-1.18v0.91h1.55V40.34z"/>
	</g>
	<g>
		<path class="st0" d="M63.56,37.21v3.12h-0.4l-1.6-2.29h-0.01c0.01,0.23,0.01,0.51,0.01,0.75v1.54h-0.45v-3.12h0.4l1.6,2.29h0.01
			c0-0.23-0.01-0.51-0.01-0.75v-1.54H63.56z"/>
	</g>
	<g>
		<path class="st0" d="M66.72,37.66h-1.13v2.68h-0.45v-2.68H64v-0.45h2.72V37.66z"/>
	</g>
	<g>
		<path class="st0" d="M68.28,40.4c-0.86,0-1.53-0.68-1.53-1.62c0-0.94,0.67-1.62,1.53-1.62c0.86,0,1.52,0.67,1.52,1.62
			C69.8,39.72,69.13,40.4,68.28,40.4z M68.28,37.6c-0.61,0-1.08,0.48-1.08,1.17c0,0.7,0.47,1.18,1.08,1.18
			c0.61,0,1.07-0.48,1.07-1.18C69.35,38.08,68.88,37.6,68.28,37.6z"/>
	</g>
	<g>
		<path class="st0" d="M72.15,40.34h-0.94v-3.12h0.94c0.94,0,1.55,0.59,1.55,1.56C73.69,39.75,73.09,40.34,72.15,40.34z
			 M72.13,37.66h-0.48v2.23h0.48c0.72,0,1.11-0.39,1.11-1.11C73.24,38.06,72.85,37.66,72.13,37.66z"/>
		<path class="st0" d="M76.3,40.34h-2v-3.12h1.96v0.45h-1.51v0.87h1.08v0.45h-1.08v0.91h1.55V40.34z"/>
	</g>
	<path class="st0" d="M58.45,20.2h-3.49V16.7h3.49V20.2z M46.59,27.57c0,0,1.15-0.93,3.75-0.93c5.64,0,6.6,4.62,11.57,4.62
		c2.37,0,5.07-1.92,5.07-1.92L65.67,7.09h-3.59v1.73h-3.59V7.09h-3.53v1.73h-3.49V7.09h-3.72L46.59,27.57z"/>
</g>
</svg>
